<?xml version="1.0" encoding="iso-8859-1"?>
<!-- Generator: Adobe Illustrator 19.0.0, SVG Export Plug-In . SVG Version: 6.00 Build 0)  -->
<svg version="1.1" id="Capa_1" xmlns="http://www.w3.org/2000/svg" xmlns:xlink="http://www.w3.org/1999/xlink" x="0px" y="0px"
	 viewBox="0 0 511.997 511.997" style="enable-background:new 0 0 511.997 511.997;" xml:space="preserve">
<circle style="fill:#54A0FF;" cx="255.999" cy="255.997" r="154.649"/>
<path style="fill:#338DEF;" d="M129.8,256c0-80.613,61.683-146.808,140.423-153.989c-91.15-8.314-168.87,63.384-168.87,153.989
	c0,90.664,77.773,162.299,168.87,153.99C191.483,402.808,129.8,336.613,129.8,256z"/>
<g>
	<path style="fill:#E4EAF8;" d="M256.001,109.081c-4.267,0-7.727-3.459-7.727-7.727V38.84c0-4.268,3.459-7.727,7.727-7.727
		s7.727,3.459,7.727,7.727v62.513C263.727,105.622,260.267,109.081,256.001,109.081z"/>
	<path style="fill:#E4EAF8;" d="M256.001,480.887c-4.267,0-7.727-3.459-7.727-7.727v-62.513c0-4.268,3.459-7.727,7.727-7.727
		s7.727,3.459,7.727,7.727v62.513C263.727,477.428,260.267,480.887,256.001,480.887z"/>
</g>
<circle style="fill:#FECA57;" cx="19.42" cy="255.997" r="19.42"/>
<path style="fill:#F4B537;" d="M24.881,256c0-5.991,2.716-11.344,6.98-14.906c-3.37-2.816-7.706-4.514-12.44-4.514
	c-10.725,0-19.42,8.695-19.42,19.42c0,10.725,8.695,19.42,19.42,19.42c4.735,0,9.07-1.698,12.44-4.514
	C27.597,267.344,24.881,261.991,24.881,256z"/>
<g>
	<path style="fill:#E4EAF8;" d="M122.064,186.404c-2.909,0,0.667,1.575-57.994-32.293c-3.696-2.134-4.962-6.86-2.828-10.555
		c2.133-3.697,6.859-4.961,10.555-2.828l54.138,31.257C132.77,175.931,129.92,186.404,122.064,186.404z"/>
	<path style="fill:#E4EAF8;" d="M444.058,372.308c-1.311,0-2.64-0.334-3.856-1.036l-54.138-31.257
		c-3.696-2.134-4.962-6.86-2.828-10.555c2.133-3.696,6.859-4.962,10.555-2.828l54.138,31.257c3.696,2.134,4.962,6.86,2.828,10.555
		C449.326,370.923,446.729,372.308,444.058,372.308z"/>
	<path style="fill:#E4EAF8;" d="M67.942,372.308c-2.67,0-5.267-1.385-6.699-3.864c-2.134-3.695-0.868-8.421,2.828-10.555
		l54.138-31.257c3.695-2.133,8.422-0.868,10.555,2.828c2.134,3.695,0.868,8.421-2.828,10.555l-54.138,31.257
		C70.581,371.974,69.253,372.308,67.942,372.308z"/>
	<path style="fill:#E4EAF8;" d="M389.935,186.404c-7.852,0-10.712-10.47-3.87-14.419l54.138-31.257
		c3.695-2.132,8.421-0.868,10.555,2.828c2.134,3.695,0.868,8.421-2.828,10.555C389.011,188.128,392.795,186.404,389.935,186.404z"/>
</g>
<path style="fill:#8AC2FF;" d="M389.049,163.036c-0.16-0.306-0.335-0.607-0.54-0.896c-49.824-70.221-147.424-90.438-221.282-42.028
	c-23.489,15.33-41.192,37.034-44.277,42.925C51.597,264.849,117.354,406.425,241.17,417.69
	C377.437,430.268,468.486,276.382,389.049,163.036z M109.282,263.727h54.899c0.47,18.078,2.597,35.62,6.227,52.065
	c-14.443,5.004-27.498,11.284-38.573,18.661C118.711,313.707,110.643,289.727,109.282,263.727z M131.834,177.546
	c11.075,7.377,24.13,13.658,38.574,18.662c-3.63,16.445-5.757,33.987-6.227,52.065h-54.899
	C110.632,222.367,118.727,198.218,131.834,177.546z M207.75,117.27c-16.037,17.332-26.929,41.189-33.537,63.954
	c-12.519-4.436-23.824-9.904-33.438-16.272C157.814,143.436,180.721,126.693,207.75,117.27z M371.225,164.953
	c-9.614,6.367-20.919,11.836-33.438,16.271c-6.607-22.764-17.5-46.623-33.537-63.954
	C331.17,126.655,354.108,143.337,371.225,164.953z M402.718,248.273h-54.9c-0.47-18.078-2.597-35.62-6.227-52.065
	c14.443-5.004,27.498-11.285,38.574-18.662C393.273,198.218,401.368,222.367,402.718,248.273z M380.164,334.453
	c-11.075-7.377-24.13-13.657-38.572-18.661c3.63-16.445,5.757-33.987,6.227-52.065h54.899
	C401.396,288.988,393.588,313.342,380.164,334.453z M304.25,394.73c6.551-7.08,12.62-15.672,18.071-25.684
	c6.25-11.481,11.433-24.374,15.466-38.27c12.519,4.436,23.824,9.904,33.438,16.271C353.882,368.946,330.865,385.452,304.25,394.73z
	 M140.775,347.048c9.614-6.368,20.919-11.836,33.438-16.272c6.607,22.766,17.5,46.623,33.537,63.954
	C182.007,385.756,158.648,369.619,140.775,347.048z M248.274,109.857v84.441c-20.889-0.584-41.064-3.525-59.317-8.485
	C197.629,155.793,217.614,115.989,248.274,109.857z M263.727,263.727h68.633c-0.451,16.523-2.36,32.52-5.584,47.517
	c-19.52-5.286-40.956-8.402-63.049-8.994L263.727,263.727L263.727,263.727z M263.727,248.273v-38.522
	c22.093-0.592,43.528-3.709,63.049-8.994c3.225,14.997,5.134,30.994,5.584,47.517L263.727,248.273L263.727,248.273z
	 M263.727,194.298v-84.442c30.8,6.147,50.548,45.604,59.317,75.957C304.791,190.773,284.615,193.714,263.727,194.298z
	 M185.225,200.757c19.521,5.286,40.956,8.402,63.049,8.994v38.522h-68.633C180.107,231.171,182.046,215.543,185.225,200.757z
	 M248.274,263.727v38.522c-22.093,0.592-43.528,3.709-63.049,8.994c-3.173-14.757-5.117-30.371-5.584-47.517h68.633V263.727z
	 M188.957,326.187c18.253-4.96,38.428-7.901,59.317-8.485v84.442C217.534,395.996,197.753,356.637,188.957,326.187z
	 M263.727,317.702c20.889,0.584,41.064,3.526,59.317,8.486c-3.732,12.918-8.522,24.867-14.295,35.47
	c-12.564,23.077-28.322,37.154-45.022,40.487V317.702z"/>
<circle style="fill:#FECA57;" cx="51.12" cy="137.708" r="19.42"/>
<path style="fill:#F4B537;" d="M56.577,137.711c0-5.991,2.716-11.344,6.98-14.906c-3.37-2.816-7.706-4.514-12.44-4.514
	c-10.725,0-19.42,8.695-19.42,19.42s8.695,19.42,19.42,19.42c4.735,0,9.07-1.698,12.44-4.514
	C59.293,149.054,56.577,143.701,56.577,137.711z"/>
<circle style="fill:#FECA57;" cx="137.709" cy="51.118" r="19.42"/>
<path style="fill:#F4B537;" d="M143.17,51.116c0-5.991,2.716-11.344,6.98-14.906c-3.37-2.816-7.706-4.514-12.44-4.514
	c-10.725,0-19.42,8.695-19.42,19.42s8.695,19.42,19.42,19.42c4.735,0,9.07-1.698,12.44-4.514
	C145.886,62.46,143.17,57.107,143.17,51.116z"/>
<circle style="fill:#FECA57;" cx="255.999" cy="19.42" r="19.42"/>
<path style="fill:#F4B537;" d="M261.458,19.42c0-5.991,2.716-11.344,6.98-14.906c-3.37-2.816-7.705-4.514-12.44-4.514
	c-10.725,0-19.42,8.695-19.42,19.42s8.695,19.42,19.42,19.42c4.735,0,9.07-1.698,12.44-4.514
	C264.174,30.764,261.458,25.411,261.458,19.42z"/>
<circle style="fill:#FECA57;" cx="374.288" cy="51.118" r="19.42"/>
<path style="fill:#F4B537;" d="M379.751,51.116c0-5.991,2.716-11.344,6.98-14.906c-3.37-2.816-7.706-4.514-12.44-4.514
	c-10.725,0-19.42,8.695-19.42,19.42s8.695,19.42,19.42,19.42c4.735,0,9.07-1.698,12.44-4.514
	C382.467,62.46,379.751,57.106,379.751,51.116z"/>
<circle style="fill:#FECA57;" cx="461.087" cy="137.658" r="19.42"/>
<path style="fill:#F4B537;" d="M466.548,137.657c0-5.991,2.716-11.344,6.98-14.906c-3.37-2.816-7.706-4.514-12.44-4.514
	c-10.725,0-19.42,8.695-19.42,19.42c0,10.726,8.695,19.42,19.42,19.42c4.735,0,9.07-1.698,12.44-4.514
	C469.264,149.001,466.548,143.648,466.548,137.657z"/>
<circle style="fill:#FECA57;" cx="492.577" cy="255.997" r="19.42"/>
<path style="fill:#F4B537;" d="M498.04,256c0-5.991,2.716-11.344,6.98-14.906c-3.37-2.816-7.706-4.514-12.44-4.514
	c-10.725,0-19.42,8.695-19.42,19.42c0,10.726,8.695,19.42,19.42,19.42c4.735,0,9.07-1.698,12.44-4.514
	C500.756,267.344,498.04,261.991,498.04,256z"/>
<circle style="fill:#FECA57;" cx="51.12" cy="374.286" r="19.42"/>
<path style="fill:#F4B537;" d="M56.577,374.287c0,5.991,2.716,11.344,6.98,14.906c-3.37,2.816-7.706,4.514-12.44,4.514
	c-10.725,0-19.42-8.695-19.42-19.42c0-10.726,8.695-19.42,19.42-19.42c4.735,0,9.07,1.698,12.44,4.514
	C59.293,362.943,56.577,368.296,56.577,374.287z"/>
<circle style="fill:#FECA57;" cx="137.709" cy="460.876" r="19.42"/>
<path style="fill:#F4B537;" d="M143.17,460.881c0,5.991,2.716,11.344,6.98,14.906c-3.37,2.816-7.706,4.514-12.44,4.514
	c-10.725,0-19.42-8.695-19.42-19.42s8.695-19.42,19.42-19.42c4.735,0,9.07,1.698,12.44,4.514
	C145.886,449.537,143.17,454.891,143.17,460.881z"/>
<circle style="fill:#FECA57;" cx="255.999" cy="492.576" r="19.42"/>
<path style="fill:#F4B537;" d="M261.458,492.577c0,5.991,2.716,11.344,6.98,14.906c-3.37,2.816-7.706,4.514-12.441,4.514
	c-10.725,0-19.42-8.695-19.42-19.42c0-10.726,8.695-19.42,19.42-19.42c4.735,0,9.07,1.698,12.44,4.514
	C264.174,481.233,261.458,486.586,261.458,492.577z"/>
<circle style="fill:#FECA57;" cx="374.288" cy="460.876" r="19.42"/>
<path style="fill:#F4B537;" d="M379.751,460.881c0,5.991,2.716,11.344,6.98,14.906c-3.37,2.816-7.706,4.514-12.44,4.514
	c-10.725,0-19.42-8.695-19.42-19.42s8.695-19.42,19.42-19.42c4.735,0,9.07,1.698,12.44,4.514
	C382.467,449.537,379.751,454.891,379.751,460.881z"/>
<circle style="fill:#FECA57;" cx="461.087" cy="374.336" r="19.42"/>
<path style="fill:#F4B537;" d="M466.548,374.34c0,5.991,2.716,11.344,6.98,14.906c-3.37,2.816-7.706,4.514-12.44,4.514
	c-10.725,0-19.42-8.695-19.42-19.42s8.695-19.42,19.42-19.42c4.735,0,9.07,1.698,12.44,4.514
	C469.264,362.996,466.548,368.349,466.548,374.34z"/>
<g>
</g>
<g>
</g>
<g>
</g>
<g>
</g>
<g>
</g>
<g>
</g>
<g>
</g>
<g>
</g>
<g>
</g>
<g>
</g>
<g>
</g>
<g>
</g>
<g>
</g>
<g>
</g>
<g>
</g>
</svg>
